# xmcd CD database file
# Copyright (C) 1993-1998 Ti Kan
#
# Track frame offsets:
#  182
#  25315
#  62800
#  79387
#  110477
#  142565
#  162205
#  182392
#  214552
#  239007
#  258610
#
# Disc length: 4036 seconds
#
# Revision: 1
# Processed by: cddbd v1.4b41PL1 Copyright (c) Steve Scherf et al.
# Submitted via: CDWizzard Release:4.35
#
DISCID=920fc20b
DTITLE=Whitney Houston - Always Yours
DYEAR=1900
DGENRE=
TTITLE0=I Wanna Dance With Somebody
TTITLE1=Saving All My Love For You
TTITLE2=How Will I Know
TTITLE3=Medley:
TTITLE4=All The Man That I Need
TTITLE5=My Name Is Not Susan
TTITLE6=Anymore
TTITLE7=A Song For You
TTITLE8=Who Do You Love
TTITLE9=I'm Your Baby Tonight
TTITLE10=Greatest Love Of All
EXTD=
EXTT0=
EXTT1=
EXTT2=
EXTT3=
EXTT4=
EXTT5=
EXTT6=
EXTT7=
EXTT8=
EXTT9=
EXTT10=
PLAYORDER=
